<?xml version="1.0" encoding="UTF-8"?><svg id="Layer_1" xmlns="http://www.w3.org/2000/svg" viewBox="0 0 157.86 157.86"><defs><style>.cls-1{fill:#25acff;stroke:#25acff;stroke-miterlimit:10;stroke-width:4px;}</style></defs><path class="cls-1" d="M77.58,25.55l-28.7,54.89h14.02v51.86h32.03v-51.86h14.07l-31.41-54.89ZM93.6,79.12v51.86h-29.38v-51.86h-13.16l26.57-50.82,29.08,50.82h-13.11Z"/><path class="cls-1" d="M78.93,2C36.51,2,2,36.51,2,78.93s34.51,76.93,76.93,76.93,76.93-34.51,76.93-76.93S121.35,2,78.93,2ZM3.44,78.93C3.44,37.31,37.31,3.44,78.93,3.44s75.49,33.86,75.49,75.49-33.86,75.49-75.49,75.49S3.44,120.55,3.44,78.93Z"/></svg>