<?xml version="1.0" encoding="UTF-8"?><svg id="Layer_1" xmlns="http://www.w3.org/2000/svg" viewBox="0 0 134.73 106.01"><defs><style>.cls-1{fill:#ab082e;stroke-width:0px;}</style></defs><path class="cls-1" d="m88.21,50.5L133.34,3.29c1.18-1.24.31-3.29-1.41-3.29h-33.81c-.55,0-1.08.24-1.45.65l-20.78,23.33c-2.58,2.89-4.82,5.47-6.96,8.07-.78.94-2.21.94-2.99,0-2.18-2.6-4.46-5.24-6.86-8L38.93.68c-.37-.43-.91-.68-1.47-.68H3.75c-1.69,0-2.58,2-1.44,3.25l43.52,47.85c.68.75.67,1.89-.01,2.63L.52,102.75c-1.15,1.25-.27,3.27,1.43,3.27h33.65c.58,0,1.12-.26,1.49-.7l18.38-21.95c3.99-4.4,7-7.88,9.53-10.95.76-.92,2.15-.95,2.95-.06,2.95,3.3,6.22,6.83,10.12,10.98l19.45,22.03c.37.42.9.66,1.46.66h33.82c1.7,0,2.58-2.02,1.43-3.27l-46.02-49.57c-.7-.75-.69-1.92.02-2.67Z"/></svg>