<?xml version="1.0" encoding="utf-8"?>
<!-- Generator: Adobe Illustrator 27.9.1, SVG Export Plug-In . SVG Version: 6.00 Build 0)  -->
<svg version="1.1" id="Layer_1" xmlns="http://www.w3.org/2000/svg" xmlns:xlink="http://www.w3.org/1999/xlink" x="0px" y="0px"
	 viewBox="0 0 1280 1180" style="enable-background:new 0 0 1280 1180;" xml:space="preserve">
<style type="text/css">
	.st0{fill:#FFFFFF;stroke:#FFFFFF;stroke-miterlimit:10;}
</style>
<g transform="translate(0.000000,1180.000000) scale(0.100000,-0.100000)">
	<path class="st0" d="M4168.3,11411.2c-1034-83.3-1935.1-481-2637.9-1164.1C1053.2,9783,712.6,9218.8,546,8614.3
		c-235.8-856.3-146.9-1725.6,258.3-2521c254.5-498.8,645.7-957.3,1121-1314.7c597-447.3,1292.3-717.7,2088.6-812.2
		c108.5-12.2,212.4-15.9,458.5-15.9c339.7,0,453.8,8.4,737.4,56.1c646.6,109.5,1291.3,383.7,1806,770.1
		c285.4,214.3,586.7,512.8,788.8,782.3c470.7,626,724.3,1370.9,724.3,2124.2c0,823.5-303.2,1630.1-859,2290.7
		c-621.3,737.4-1530.9,1239.9-2528.4,1395.2C4870.1,11412.2,4415.3,11431.8,4168.3,11411.2z M4858,10307
		c242.4-29.9,464.1-84.2,690.6-168.4c138.5-50.5,396.8-178.7,526.8-260.1c331.3-206.8,627.9-489.4,834.7-796.3
		c258.3-382.7,396.8-784.2,431.4-1249.2c21.5-292-24.3-640.1-123.5-932.9C6941,6086,6250.4,5436.6,5375.5,5168
		C4581,4924.6,3706,5013.5,2994.9,5411.2c-706.5,394.9-1199.6,1048-1347.5,1782.6c-38.4,192.8-46.8,283.5-46.8,489.4
		s8.4,296.6,46.8,489.4c132.9,662.5,546.5,1257.7,1154.7,1662.8c444.5,295.7,961,463.2,1530,495
		C4445.3,10337,4719.5,10324.8,4858,10307z"/>
	<path class="st0" d="M8366.1,5095.8c-228.3-323.8-611-687.8-983.5-935.8c-76.7-51.5-147.8-99.2-157.2-105.7
		c-15-10.3,198.4-208.7,1922-1798.5c1065.8-983.5,1960.4-1806.9,1987.5-1831.3l48.7-44l605.4,557.7
		c481,443.5,602.6,560.5,593.3,568.9c-138.5,127.3-1646,1515.9-2648.2,2440.4C9009,4614.9,8415.7,5161.3,8414.8,5161.3
		C8412.9,5160.4,8391.4,5131.4,8366.1,5095.8z"/>
</g>
</svg>
