<svg xmlns="http://www.w3.org/2000/svg" data-name="Layer 1" viewBox="0 0 320.58 499.65"><path d="M320.58 58.21v-2.52c-5.81 3.43-11.61 6.87-17.43 10.29-.85.51-1.82.94-3.08 1.53-.15-1.8-.35-3.18-.32-4.57.23-20.98.49-41.97.68-62.95h-3.33c.16 20.59.32 41.18.47 61.77 0 1.72-.08 3.46-.15 5.96-.19-.1-.36-.19-.54-.28-10.23-6.04-20.33-12.01-30.38-17.95v.16c-13.59-8.08-27.19-16.14-40.83-24.14-2.97-1.76-4.14-3.67-4.16-7.16-.02-6.12-.08-12.24-.12-18.35h-2.8c-.07 6.31-.16 12.62-.21 18.93-.03 2.78-.62 4.65-3.25 6.17-23.46 13.73-46.83 27.6-70.24 41.43-.72.43-1.5.73-2.83 1.35-.13-1.75-.35-3.17-.34-4.6.24-21.09.48-42.19.7-63.28h-2.9c.15 21.28.36 42.54.55 63.82 0 1.13-.16 2.27-.29 4.22-2.08-1.1-3.42-1.77-4.71-2.54-22.5-13.36-44.99-26.76-67.54-40.03-2.72-1.61-4.05-3.27-4.06-6.71-.02-6.26-.08-12.51-.12-18.76h-2.83c-.06 6.26-.14 12.51-.2 18.76-.02 2.79-.65 4.65-3.25 6.18C38.02 36.09 19.01 47.33 0 58.55v2.34c19.44-10.93 38.9-21.85 58.31-32.84 2.4-1.35 4.33-1.78 6.97-.27 23.43 13.4 46.97 26.65 70.45 39.97.85.49 1.61 1.1 2.89 1.98-1.4.98-2.39 1.78-3.48 2.41-23.23 13.09-46.49 26.15-69.71 39.28-2.4 1.35-4.33 1.76-6.97.25C39.01 100.55 19.5 89.53 0 78.5v2.2c20.16 11.98 39.99 23.76 59.95 35.59.26 29.33.53 58.51.8 88.88-6.86-4.08-12.51-7.44-18.16-10.79C28.4 185.95 14.22 177.49 0 169.11v3.4c18.47 10.53 36.99 20.96 55.48 31.44 1.14.65 2.21 1.44 4.14 2.69-3.97 2.29-7.15 4.16-10.34 5.97-16.43 9.25-32.87 18.46-49.28 27.75v3.29c14.36-8.43 28.7-16.88 43.06-25.3 5.51-3.24 11.07-6.41 17.34-10.02.13 1.98.3 3.29.29 4.59-.29 26.55-.65 53.1-.86 79.66-.02 3-.78 4.92-3.53 6.53-18.8 11.01-37.55 22.12-56.3 33.22v1.66c19.17-10.77 38.34-21.53 57.49-32.35 2.35-1.33 4.28-1.92 6.96-.4 23.58 13.5 47.26 26.83 70.89 40.23.71.4 1.34.93 2.46 1.73-1.28.94-2.22 1.79-3.3 2.4-23.23 13.11-46.49 26.18-69.69 39.31-2.37 1.34-4.31 1.87-6.98.34-19.24-11.02-38.54-21.93-57.84-32.84v2.25c18.85 11.18 37.68 22.37 56.54 33.53 1.9 1.13 2.96 2.35 2.98 4.74.16 27.74.43 55.46.65 83.19 0 .49-.14.98-.34 2.31-1.79-.92-3.14-1.5-4.39-2.24-18.48-10.96-36.94-21.96-55.44-32.89v3.38c18.32 10.44 36.69 20.8 55.03 31.19 1.14.64 2.19 1.4 3.73 2.41-1.5 1.01-2.49 1.82-3.6 2.44-10.02 5.65-20.04 11.28-30.07 16.93h3.85c9.02-5.33 18.04-10.67 27.07-16 .97-.58 2.07-.98 3.6-1.69.16 1.68.39 2.94.38 4.19l-.15 13.49h1.92c-.04-4.6-.09-9.2-.13-13.79-.02-1.12.15-2.26.26-3.9 1.44.68 2.5 1.09 3.45 1.64 9.01 5.35 18.01 10.7 27.01 16.05h4.63c-10.33-5.85-20.66-11.69-30.98-17.54-.86-.48-1.65-1.11-2.91-1.96 1.28-.98 2.23-1.86 3.32-2.5 23.09-13.02 46.25-25.97 69.28-39.11 3.07-1.75 5.35-1.6 8.34.11 22.86 13.08 45.83 26.02 68.74 38.99 1.15.66 2.23 1.45 4.24 2.75-2.24 1.29-3.66 2.14-5.09 2.94-9.67 5.44-19.33 10.87-29 16.31h4.42c8.64-5.11 17.28-10.21 25.93-15.31 1.26-.74 2.6-1.33 4.49-2.29.1 2.2.26 3.81.25 5.42-.05 4.06-.09 8.12-.14 12.18h1.91c-.05-5.62-.1-11.24-.16-16.87 1.71.33 15.39 7.96 30.78 16.87h4.3c-9.79-5.55-19.59-11.09-29.38-16.63-1.29-.73-2.52-1.58-4.24-2.68 1.39-1.02 2.35-1.88 3.44-2.5 14-7.89 27.99-15.77 41.98-23.67 9.04-5.09 18.08-10.17 27.1-15.31 1.49-.85 2.8-1.28 4.12-1.35 1.31.04 2.63.45 4.13 1.31 6.11 3.5 12.22 6.99 18.34 10.46v-3.58c-5.85-3.47-11.69-6.94-17.54-10.4-1.89-1.12-2.96-2.32-2.97-4.74-.15-27.75-.42-55.5-.65-83.24-.01-.46.1-.96.29-2.33 7.13 4.23 14.2 8.43 21.26 12.62v-2.72c-6.13-3.48-12.27-6.96-18.4-10.45-.41-.23-.77-.6-1.61-1.3.71-.57 1.3-1.07 1.86-1.5.45-.32.87-.61 1.31-.86 5.61-3.16 11.23-6.32 16.85-9.48v-2.21c-6.53 3.86-13.06 7.72-19.59 11.57-.35.2-.81.32-1.56.58-.1-1.79-.21-3.08-.19-4.34.29-26.53.64-53.06.86-79.59.04-2.8.68-4.63 3.28-6.16 5.74-3.36 11.48-6.73 17.21-10.11v-3.7c-6.43 3.63-12.87 7.26-19.3 10.9-.5.29-.97.49-1.44.66-1.19.28-2.36.21-3.61-.15-.32-.13-.63-.23-.97-.43-9.57-5.46-19.16-10.88-28.75-16.31v.13c-13.65-7.74-27.31-15.46-40.96-23.2-1.16-.65-2.24-1.42-3.78-2.42.93-.79 1.54-1.52 2.31-1.95 23.58-13.3 47.2-26.54 70.78-39.87 1.19-.67 2.25-1.04 3.32-1.14 1.12-.02 2.26.27 3.56 1.01 6.27 3.59 12.55 7.17 18.84 10.74v-3.59c-6.69-3.97-13.38-7.94-20.08-11.92-.27-29.08-.54-58.18-.83-88.31 7.22 3.96 14.12 8.03 20.91 12.1v-2.59c-5.52-3.12-11.03-6.25-16.55-9.37-.85-.47-1.6-1.13-3.2-2.26 1.93-1.12 3.07-1.78 4.22-2.42 5.17-2.92 10.35-5.83 15.53-8.75Zm-174.65 9.11c23.25-13.11 46.54-26.15 69.75-39.34 2.81-1.6 4.96-1.78 7.88-.09C237.68 35.98 251.84 44 266 52.01v.09c8.61 4.87 17.21 9.75 25.82 14.63 1.3.74 2.55 1.58 4.22 2.6-.92.85-1.51 1.63-2.27 2.06-9.26 5.22-18.51 10.44-27.77 15.66v.28c-13.8 7.74-27.59 15.49-41.33 23.35-3.45 1.97-6.05 2.25-9.66.16-22.23-12.86-44.62-25.4-66.95-38.07-1.58-.9-3.14-1.83-5.18-3.02 1.31-1.05 2.09-1.89 3.05-2.42Zm-4.2 3.98c1.97 1.03 3.44 1.71 4.84 2.54 22.38 13.27 44.71 26.63 67.17 39.79 3.15 1.84 4.39 3.83 4.39 7.54.07 26.05.39 52.11.61 78.16.01 1.64-.13 3.28-.22 5.53-1.97-1.03-3.45-1.72-4.84-2.54-22.38-13.27-44.71-26.63-67.18-39.78-3.15-1.85-4.36-3.85-4.37-7.55-.08-26.05-.39-52.1-.62-78.17-.02-1.62.11-3.25.2-5.51Zm76.81 141.53c-.29 26.52-.65 53.06-.85 79.58-.02 3.09-1 4.89-3.66 6.45-23.17 13.56-46.26 27.25-69.38 40.88-.87.51-1.79.91-3.08 1.54-.22-1.31-.58-2.38-.57-3.46.29-27.04.62-54.06.89-81.11.03-2.39.56-4.08 2.8-5.41 23.89-13.99 47.71-28.11 71.55-42.18.42-.25.93-.36 2.06-.79.11 1.87.25 3.18.24 4.49ZM62.36 198.96c.29-25.88.67-51.75.8-77.63.02-3.82 1.1-6.06 4.53-8.07 22.79-13.23 45.43-26.72 68.13-40.12.99-.59 2.07-1.01 3.68-1.78.16 1.83.38 3.24.37 4.65-.27 26.55-.61 53.1-.86 79.65-.02 2.74-.53 4.65-3.18 6.21-23.33 13.64-46.58 27.45-69.86 41.19-.85.5-1.76.87-3.48 1.71-.06-2.52-.15-4.17-.13-5.81Zm76.17 229.71c-.02 3.66-1.16 5.74-4.34 7.59-22.45 13.11-44.8 26.41-67.18 39.62-1.4.83-2.82 1.64-4.84 2.81-.14-2.2-.32-3.65-.31-5.1.28-26.36.64-52.72.84-79.09.02-2.98.68-4.94 3.46-6.57 23.02-13.46 45.94-27.09 68.91-40.66 1.11-.65 2.32-1.16 4.05-2.03.09 2.11.24 3.73.22 5.35-.28 26.02-.66 52.04-.81 78.07ZM63.1 296.7c-.27-29.46-.53-58.52-.8-87.39.47-.27.61-.37.75-.42.15-.06.35-.13.46-.08.91.44 1.84.84 2.71 1.34 24.08 14.3 48.17 28.61 72.39 42.99.27 29.35.53 58.51.8 88.85-25.93-15.39-50.96-30.24-76.32-45.3Zm74.72-47.83c-24.08-13.71-48.18-27.35-72.26-41.03-.43-.24-.78-.63-1.79-1.45 1.68-1.1 2.87-1.96 4.16-2.68 22.66-12.78 45.37-25.48 67.96-38.39 3.34-1.91 5.81-2.02 9.23-.05 22.53 12.98 45.22 25.71 67.85 38.54 1.31.74 2.56 1.57 4.22 2.6-.88.84-1.42 1.67-2.19 2.09-23.84 13.44-47.72 26.83-71.54 40.3-1.99 1.11-3.63 1.23-5.64.08Zm80.12 228.51c-.29.21-.43.3-.58.38-.14.06-.34.16-.45.1-.92-.42-1.85-.81-2.73-1.32-24.1-14.3-48.21-28.62-72.42-43-.26-29.3-.54-58.36-.8-88.46 2.21 1.12 3.56 1.71 4.81 2.47 22.67 13.43 45.31 26.94 68.01 40.33 2.41 1.42 3.59 2.92 3.59 5.91.13 26.91.43 53.81.67 80.7.01 1-.08 2.02-.11 2.9Zm-2.43-92.19c-23.29-13.32-46.68-26.49-70.02-39.71-.85-.48-1.65-1.09-2.95-1.95 1.28-.96 2.19-1.82 3.25-2.42 23.39-13.18 46.79-26.3 70.15-39.52 2.3-1.3 4.13-1.54 6.53-.17 14.49 8.27 29.02 16.47 43.54 24.69v.16c8.79 4.98 17.58 9.96 26.36 14.94.99.55 1.88 1.24 3.58 2.37-.01 0-.02.01-.03.02-2.15 1.24-3.45 2-4.75 2.75-8.39 4.72-16.78 9.45-25.16 14.17v.24c-14.37 8.09-28.75 16.16-43.09 24.29-2.61 1.48-4.65 1.71-7.41.14ZM296 429.3c-.02 2.73-.53 4.66-3.18 6.22-8.96 5.24-17.88 10.52-26.81 15.79v.25c-14.08 8.3-28.15 16.62-42.22 24.93-.99.6-2.06 1.06-3.52 1.79-.23-1.36-.62-2.44-.61-3.51.28-27.06.65-54.11.85-81.17.02-3.25 1.51-4.78 4.04-6.27 20.57-12.01 41.08-24.12 61.62-36.2 2.99-1.76 6.05-3.5 9.69-5.6.21-.1.41-.19.64-.3.14 1.71.37 3.08.35 4.42-.28 26.55-.62 53.1-.86 79.64Zm-71.64-219.11c13.89 8.23 27.77 16.47 41.65 24.7v.13c8.92 5.29 17.84 10.6 26.78 15.87 2.38 1.41 3.62 2.88 3.63 5.9.12 26.88.43 53.77.65 80.63.01 1.09-.12 2.2-.25 3.97-1.62-.84-2.74-1.39-3.78-1.99l-26.52-15.75v.15c-13.74-8.16-27.48-16.31-41.27-24.38-3.13-1.83-4.44-3.78-4.45-7.52-.06-26.04-.38-52.07-.6-78.11-.01-1.63.11-3.27.19-5.49 1.67.78 2.88 1.24 3.97 1.89Zm72.4-55.22c-.02 3.6-1.05 5.78-4.27 7.66-8.85 5.17-17.66 10.39-26.48 15.61v.26c-13.88 8.2-27.75 16.41-41.63 24.62-.97.58-2.03 1-3.75 1.81-.12-1.99-.26-3.16-.24-4.33.29-26.72.67-53.44.86-80.17.02-3.09 1.05-4.88 3.72-6.44a9610.2 9610.2 0 0 0 41.55-24.45c8.94-5.26 17.88-10.54 26.83-15.81 1.14-.67 2.37-1.24 4-2.06.1 2.06.25 3.63.23 5.17-.29 26.06-.65 52.09-.82 78.13Z" style="fill:#f1f2f2;fill-rule:evenodd;stroke-width:0"/></svg>